HIERARCHY
ROOT Pelvis
{
	OFFSET 0.000000 0.000000 0.000000
	CHANNELS 6 Xposition Yposition Zposition Zrotation Yrotation Xrotation 
	JOINT Left_hip
	{
		OFFSET 0.067986 -0.089946 -0.007639
		CHANNELS 3 Zrotation Yrotation Xrotation
		JOINT Left_knee
		{
			OFFSET 0.036308 -0.388288 -0.004016
			CHANNELS 3 Zrotation Yrotation Xrotation
			JOINT Left_ankle
			{
				OFFSET -0.012264 -0.413250 -0.042878
				CHANNELS 3 Zrotation Yrotation Xrotation
				JOINT Left_foot
				{
					OFFSET 0.024043 -0.058563 0.118570
					CHANNELS 3 Zrotation Yrotation Xrotation
					End Site
					{
						OFFSET 0.000000 0.000000 0.000000
					}
				}
			}
		}
	}
	JOINT Right_hip
	{
		OFFSET -0.065648 -0.089374 -0.003858
		CHANNELS 3 Zrotation Yrotation Xrotation
		JOINT Right_knee
		{
			OFFSET -0.042132 -0.395021 -0.006361
			CHANNELS 3 Zrotation Yrotation Xrotation
			JOINT Right_ankle
			{
				OFFSET 0.014805 -0.413264 -0.041054
				CHANNELS 3 Zrotation Yrotation Xrotation
				JOINT Right_foot
				{
					OFFSET -0.021758 -0.049013 0.121832
					CHANNELS 3 Zrotation Yrotation Xrotation
					End Site
					{
						OFFSET 0.000000 0.000000 0.000000
					}
				}
			}
		}
	}
	JOINT Spine1
	{
		OFFSET -0.002755 0.104406 -0.022277
		CHANNELS 3 Zrotation Yrotation Xrotation
		JOINT Spine2
		{
			OFFSET 0.004136 0.129393 -0.002186
			CHANNELS 3 Zrotation Yrotation Xrotation
			JOINT Spine3
			{
				OFFSET 0.001906 0.049304 0.025578
				CHANNELS 3 Zrotation Yrotation Xrotation
				JOINT Neck
				{
					OFFSET -0.004620 0.210958 -0.044063
					CHANNELS 3 Zrotation Yrotation Xrotation
					JOINT Head
					{
						OFFSET 0.003833 0.067393 0.052435
						CHANNELS 3 Zrotation Yrotation Xrotation
						End Site
						{
							OFFSET 0.000000 0.000000 0.000000
						}
					}
				}
				JOINT Left_collar
				{
					OFFSET 0.070771 0.116689 -0.037192
					CHANNELS 3 Zrotation Yrotation Xrotation
					JOINT Left_shoulder
					{
						OFFSET 0.080652 0.031596 -0.005617
						CHANNELS 3 Zrotation Yrotation Xrotation
						JOINT Left_elbow
						{
							OFFSET 0.262654 -0.015020 -0.027939
							CHANNELS 3 Zrotation Yrotation Xrotation
							JOINT Left_wrist
							{
								OFFSET 0.250438 0.010062 -0.000990
								CHANNELS 3 Zrotation Yrotation Xrotation
								JOINT Left_palm
								{
									OFFSET 0.081198 -0.010037 -0.013706
									CHANNELS 3 Zrotation Yrotation Xrotation
									End Site
									{
										OFFSET 0.000000 0.000000 0.000000
									}
								}
							}
						}
					}
				}
				JOINT Right_collar
				{
					OFFSET -0.072972 0.115556 -0.040762
					CHANNELS 3 Zrotation Yrotation Xrotation
					JOINT Right_shoulder
					{
						OFFSET -0.082917 0.031841 -0.006673
						CHANNELS 3 Zrotation Yrotation Xrotation
						JOINT Right_elbow
						{
							OFFSET -0.252882 -0.013790 -0.020410
							CHANNELS 3 Zrotation Yrotation Xrotation
							JOINT Right_wrist
							{
								OFFSET -0.255570 0.009163 -0.005138
								CHANNELS 3 Zrotation Yrotation Xrotation
								JOINT Right_palm
								{
									OFFSET -0.080804 -0.007282 -0.010415
									CHANNELS 3 Zrotation Yrotation Xrotation
									End Site
									{
										OFFSET 0.000000 0.000000 0.000000
									}
								}
							}
						}
					}
				}
			}
		}
	}
}
MOTION
Frames: 9
Frame Time: 0.100000
0.000000 0.000000 0.000000 174.832598 22.872355 -17.757805 9.172422 5.120336 8.406145 -4.690629 -18.221573 -2.421625 -7.773442 12.494114 -10.040297 6.227740 0.448402 1.453373 -6.974056 -6.423614 8.535886 5.679235 11.772959 0.043848 14.885232 -12.725513 -10.694161 -12.335842 9.583072 1.781579 1.420491 2.341635 7.116145 0.913107 -2.851390 1.439229 1.252596 0.382210 2.349450 0.656076 4.218672 1.299031 0.987189 -1.475959 -4.722175 -4.864858 1.351833 -8.012999 1.267084 3.197339 -13.219415 1.365014 -7.328774 -6.500133 -2.503417 -6.042914 23.043183 -7.994327 -2.285476 -14.953439 6.165645 -0.655585 -5.973442 2.001614 -4.792949 -10.656803 -4.934590 8.945967 -9.230371 2.887855 2.218946 14.794650 8.690707 4.526653 -5.064915 
-0.000036 0.000001 0.000069 174.839647 22.873595 -17.726454 9.169532 5.129147 8.384557 -4.699550 -18.227911 -2.420531 -7.759367 12.491967 -10.027520 6.229106 0.467136 1.440184 -6.975969 -6.428226 8.509308 5.681402 11.795948 0.055346 14.893019 -12.756104 -10.705837 -12.378753 9.609388 1.757128 1.440559 2.334398 7.140087 0.898979 -2.848162 1.439875 1.251654 0.380378 2.354699 0.646760 4.168457 1.283775 1.020371 -1.469354 -4.797510 -4.884280 1.355771 -8.039209 1.235581 3.194741 -13.282183 1.364562 -7.259984 -6.669177 -2.428732 -5.961016 22.932007 -8.014272 -2.305651 -14.933252 6.139256 -0.662831 -5.999495 2.009862 -4.825699 -10.690545 -4.958737 8.929140 -9.344625 2.855227 2.177498 14.802606 8.714362 4.546816 -5.081455 
0.000017 -0.000034 0.000309 174.841616 22.857302 -17.693491 9.173710 5.128705 8.382093 -4.691414 -18.203307 -2.449794 -7.749420 12.490938 -10.026666 6.216739 0.469456 1.448384 -6.969379 -6.422230 8.517958 5.674779 11.793319 -0.008448 14.865852 -12.739850 -10.694464 -12.338660 9.589482 1.789018 1.455182 2.334311 7.142743 0.901328 -2.839525 1.457114 1.257510 0.384393 2.357678 0.658934 4.146310 1.381705 1.023859 -1.463579 -4.712164 -4.903887 1.365102 -8.024856 1.184542 3.170855 -13.294377 1.412148 -7.271402 -6.714383 -2.526923 -5.931366 22.872985 -7.984783 -2.287138 -14.897688 6.135775 -0.654944 -5.978246 2.005196 -4.803422 -10.714167 -4.962948 8.880205 -9.332051 2.979647 2.148035 14.808028 8.671667 4.530900 -5.046190 
-0.000049 -0.000032 0.000431 174.853407 22.859869 -17.666178 9.154436 5.128206 8.355183 -4.689886 -18.189920 -2.429768 -7.708764 12.482575 -10.024311 6.188978 0.498443 1.419304 -6.981212 -6.424926 8.510013 5.675051 11.789387 -0.023821 14.857717 -12.730216 -10.698674 -12.335401 9.584419 1.784576 1.465141 2.344040 7.159020 0.893910 -2.832771 1.454706 1.248650 0.388383 2.377991 0.666500 4.189059 1.508322 1.000873 -1.417046 -4.610177 -4.909313 1.356313 -8.000009 1.100090 3.115829 -13.278857 1.402253 -7.254587 -6.615684 -2.477253 -5.926455 22.909302 -8.003084 -2.303614 -14.915919 6.139145 -0.661908 -5.945248 2.083928 -4.779519 -10.718156 -5.009890 8.851107 -9.328672 2.861156 2.164198 14.879155 8.719254 4.554213 -5.088349 
-0.000326 -0.000071 0.000477 174.854602 22.847144 -17.589410 9.136566 5.134081 8.298337 -4.690811 -18.185668 -2.451786 -7.702685 12.487059 -10.012527 6.194175 0.508550 1.405020 -6.983297 -6.424307 8.444136 5.666660 11.808459 -0.040580 14.900713 -12.764298 -10.695244 -12.409967 9.635150 1.751967 1.480948 2.332882 7.194054 0.889793 -2.832693 1.421246 1.250297 0.384523 2.403966 0.669398 4.210667 1.544619 0.992038 -1.346784 -4.589785 -4.965073 1.399884 -7.998708 1.102278 3.199510 -13.306990 1.426549 -7.205542 -6.723943 -2.122161 -6.007223 22.993593 -8.060313 -2.354703 -14.953558 6.156058 -0.701509 -5.944732 2.022656 -4.818347 -10.673494 -5.061112 9.089683 -9.260819 2.524277 2.312146 15.061724 8.788754 4.589759 -5.122131 
-0.000688 -0.000117 0.000651 174.859248 22.836229 -17.455331 9.109754 5.143103 8.207649 -4.692111 -18.168535 -2.512496 -7.679574 12.494043 -9.999582 6.198227 0.510986 1.417459 -6.993789 -6.436557 8.362246 5.651803 11.824330 -0.128182 14.947054 -12.793941 -10.682313 -12.493681 9.703974 1.747676 1.465092 2.341328 7.177862 0.878849 -2.829433 1.406227 1.235396 0.380279 2.423966 0.670737 4.107795 1.609128 1.034894 -1.414464 -4.573100 -5.050441 1.470656 -7.963346 1.114861 3.298417 -13.304462 1.501035 -7.256910 -6.931260 -1.654154 -6.003371 22.952191 -8.210147 -2.439491 -15.026958 6.226147 -0.763587 -5.933263 2.007275 -4.895435 -10.633280 -5.152557 9.389090 -9.381781 2.172225 2.370982 15.007605 8.938384 4.656527 -5.199125 
-0.001088 -0.000205 0.000779 174.855368 22.890748 -17.383058 9.070155 5.134706 8.131165 -4.692094 -18.112326 -2.508455 -7.638810 12.388323 -9.971827 6.186351 0.619746 1.378933 -7.009201 -6.435264 8.334384 5.632291 11.740101 -0.179247 14.947891 -12.801536 -10.655308 -12.505266 9.723802 1.741428 1.441277 2.348756 7.209456 0.889456 -2.844428 1.433969 1.222773 0.344715 2.430700 0.696116 4.208318 1.670390 0.963409 -1.375477 -4.466985 -5.272303 1.509311 -7.891994 0.965799 3.269077 -13.264861 1.514773 -7.463912 -6.868064 -1.872798 -5.955413 22.944133 -8.269839 -2.496351 -15.051355 6.455517 -0.881195 -5.905050 2.214190 -4.909739 -10.455071 -5.482836 10.091013 -9.423622 2.242109 2.444567 14.934850 9.041139 4.717710 -5.202982 
-0.001587 -0.000272 0.001048 174.862365 22.844374 -17.325779 9.042661 5.088707 8.107391 -4.699252 -17.978325 -2.499290 -7.581502 12.282431 -9.995765 6.232943 0.827027 1.334388 -7.027744 -6.386610 8.275536 5.654573 11.639091 -0.139446 14.932291 -12.751123 -10.664290 -12.474953 9.760634 1.773907 1.382694 2.363984 7.192576 0.939189 -2.804867 1.526319 1.214197 0.321895 2.399735 0.810004 4.321691 1.631496 0.810478 -1.392760 -4.282822 -5.784357 1.704173 -7.782512 0.789413 3.311976 -13.085919 1.876320 -8.855148 -6.957230 -2.056833 -5.951127 22.651515 -8.495968 -2.633606 -15.068445 6.983397 -1.064249 -5.869701 2.407301 -4.936702 -10.107674 -6.327710 11.969239 -9.773399 2.203110 2.635764 14.643500 9.319763 4.842919 -5.255629 
-0.002509 -0.000356 0.001378 174.899930 22.903291 -17.268386 8.918401 4.904428 8.079863 -4.685618 -17.689601 -2.488005 -7.331286 11.996802 -9.969813 6.147092 1.366154 1.178039 -7.106684 -6.276741 8.297163 5.677714 11.364640 -0.190658 14.765396 -12.679712 -10.625163 -12.257355 9.712584 1.898262 1.323751 2.377366 7.058837 0.976983 -2.716421 1.666386 1.156835 0.262181 2.292401 1.079298 4.428205 1.677182 0.567955 -1.437290 -3.838304 -6.662374 2.028672 -7.583416 0.302904 2.971391 -12.899036 2.584592 -11.355163 -7.140602 -4.209122 -5.711479 21.404908 -8.460339 -2.635109 -14.662094 7.746346 -1.462636 -5.771174 2.830566 -4.905484 -9.523329 -8.018678 15.077545 -10.567353 3.213526 2.754376 13.795677 9.495064 4.928974 -5.060304 
